<svg xmlns="http://www.w3.org/2000/svg" width="1600" height="900" viewBox="0 0 1600 900" fill="none">
  <defs>
    <linearGradient id="g" x1="0" y1="0" x2="1600" y2="0" gradientUnits="userSpaceOnUse">
      <stop offset="0" stop-color="#FF8A2A" stop-opacity="0"/>
      <stop offset="0.2" stop-color="#FF8A2A" stop-opacity="0.14"/>
      <stop offset="0.8" stop-color="#FF8A2A" stop-opacity="0.14"/>
      <stop offset="1" stop-color="#FF8A2A" stop-opacity="0"/>
    </linearGradient>
  </defs>

  <!-- grid -->
  <g opacity="0.35" stroke="url(#g)" stroke-width="1">
    <!-- vertical lines -->
    <path d="M0 0V900"/>
<path d="M80 0V900"/>
<path d="M160 0V900"/>
<path d="M240 0V900"/>
<path d="M320 0V900"/>
<path d="M400 0V900"/>
<path d="M480 0V900"/>
<path d="M560 0V900"/>
<path d="M640 0V900"/>
<path d="M720 0V900"/>
<path d="M800 0V900"/>
<path d="M880 0V900"/>
<path d="M960 0V900"/>
<path d="M1040 0V900"/>
<path d="M1120 0V900"/>
<path d="M1200 0V900"/>
<path d="M1280 0V900"/>
<path d="M1360 0V900"/>
<path d="M1440 0V900"/>
<path d="M1520 0V900"/>
<path d="M1600 0V900"/>
    <!-- horizontal lines -->
    <path d="M0 0H1600"/>
<path d="M0 80H1600"/>
<path d="M0 160H1600"/>
<path d="M0 240H1600"/>
<path d="M0 320H1600"/>
<path d="M0 400H1600"/>
<path d="M0 480H1600"/>
<path d="M0 560H1600"/>
<path d="M0 640H1600"/>
<path d="M0 720H1600"/>
<path d="M0 800H1600"/>
<path d="M0 880H1600"/>
  </g>

  <!-- nodes / schematic hints -->
  <g opacity="0.6" stroke="#FF8A2A" stroke-opacity="0.35" stroke-width="2">
    <path d="M260 260H560V440H880V320H1220" fill="none"/>
    <circle cx="260" cy="260" r="6" fill="#FF8A2A" fill-opacity="0.25"/>
    <circle cx="560" cy="260" r="6" fill="#FF8A2A" fill-opacity="0.25"/>
    <circle cx="560" cy="440" r="6" fill="#FF8A2A" fill-opacity="0.25"/>
    <circle cx="880" cy="440" r="6" fill="#FF8A2A" fill-opacity="0.25"/>
    <circle cx="880" cy="320" r="6" fill="#FF8A2A" fill-opacity="0.25"/>
    <circle cx="1220" cy="320" r="6" fill="#FF8A2A" fill-opacity="0.25"/>
  </g>
</svg>
